<?xml version="1.0" standalone="no"?>
<!DOCTYPE svg PUBLIC "-//W3C//DTD SVG 20010904//EN"
 "http://www.w3.org/TR/2001/REC-SVG-20010904/DTD/svg10.dtd">
<svg version="1.0" xmlns="http://www.w3.org/2000/svg"
 width="500.000000pt" height="500.000000pt" viewBox="0 0 500.000000 500.000000"
 preserveAspectRatio="xMidYMid meet">
<metadata>
Created by potrace 1.16, written by Peter Selinger 2001-2019
</metadata>
<g transform="translate(0.000000,500.000000) scale(0.100000,-0.100000)"
fill="#000000" stroke="none">
<path d="M1870 3703 l-66 -158 -171 -3 -172 -2 -4 -178 c-2 -97 -4 -235 -5
-306 l-1 -129 -91 -90 c-49 -50 -90 -94 -90 -98 0 -5 21 -58 46 -120 l45 -111
-50 -127 c-28 -70 -51 -132 -51 -137 0 -6 -27 -78 -60 -159 -34 -82 -57 -151
-53 -155 4 -4 67 -31 138 -60 194 -77 175 -50 175 -250 l0 -170 173 -1 c94 -1
233 -3 307 -5 l135 -3 84 -86 c46 -47 90 -85 98 -85 7 0 63 20 124 44 61 25
118 42 127 39 9 -3 59 -24 110 -45 51 -22 114 -45 140 -52 26 -7 106 -38 177
-68 l131 -55 43 106 c24 58 54 130 67 159 l23 52 170 0 171 0 0 108 c0 60 3
198 6 308 l7 199 90 92 90 92 -48 121 -47 120 23 58 c12 31 26 62 29 67 4 6
21 51 38 100 16 50 49 135 72 190 52 125 63 155 59 159 -2 1 -69 29 -149 61
-80 32 -151 63 -157 68 -10 7 -13 55 -13 177 l0 167 -307 7 -308 7 -91 90 -91
91 -109 -46 c-60 -25 -116 -46 -124 -46 -16 0 -90 28 -183 69 -27 11 -55 21
-64 21 -8 0 -81 28 -161 61 -81 34 -152 63 -157 65 -6 2 -39 -67 -75 -153z
m-195 -953 c16 -28 32 -50 36 -50 3 0 23 25 43 56 50 74 66 63 66 -46 0 -87
-5 -110 -26 -110 -9 0 -14 18 -16 61 l-3 62 -25 -38 c-14 -21 -30 -40 -36 -42
-7 -2 -22 13 -35 34 l-24 38 -5 -55 c-4 -40 -9 -55 -20 -55 -12 0 -16 18 -18
89 -2 49 -1 95 2 103 9 22 31 5 61 -47z m374 34 c36 -30 49 -81 31 -125 -17
-41 -47 -59 -98 -59 -61 0 -102 41 -102 100 0 51 12 75 48 94 42 23 86 20 121
-10z m141 -57 c0 -67 17 -97 56 -97 44 0 62 33 66 125 4 76 23 55 26 -30 3
-69 1 -77 -22 -100 -19 -19 -35 -25 -68 -25 -73 1 -98 35 -98 133 0 69 6 83
27 66 8 -7 13 -34 13 -72z m310 6 l50 -66 0 65 c0 50 4 67 15 72 23 8 26 -10
23 -110 -4 -114 -16 -118 -83 -28 l-50 66 -5 -64 c-4 -47 -9 -63 -20 -63 -20
0 -28 184 -8 196 17 11 22 6 78 -68z m519 -22 c28 -54 47 -101 44 -105 -13
-13 -30 -5 -41 19 -10 22 -18 25 -65 25 -48 0 -55 -3 -65 -25 -12 -26 -42 -35
-42 -12 0 22 95 197 107 197 7 0 35 -44 62 -99z m293 -1 l27 -35 1 56 c0 53
17 89 33 72 4 -3 7 -51 7 -105 0 -121 -9 -125 -82 -31 l-53 67 -3 -68 c-2 -57
-6 -67 -20 -64 -14 3 -17 18 -20 92 -4 114 9 133 53 84 16 -18 42 -49 57 -68z"/>
<path d="M1955 2768 c-28 -16 -35 -28 -35 -65 0 -40 30 -73 65 -73 61 0 86 80
40 125 -27 28 -40 30 -70 13z"/>
</g>
</svg>
