<?xml version="1.0" standalone="no"?>
<!DOCTYPE svg PUBLIC "-//W3C//DTD SVG 20010904//EN"
 "http://www.w3.org/TR/2001/REC-SVG-20010904/DTD/svg10.dtd">
<svg version="1.0" xmlns="http://www.w3.org/2000/svg"
 width="1000.000000pt" height="796.000000pt" viewBox="0 0 1000.000000 796.000000"
 preserveAspectRatio="xMidYMid meet">
<metadata>
Created by potrace 1.16, written by Peter Selinger 2001-2019
</metadata>
<g transform="translate(0.000000,796.000000) scale(0.100000,-0.100000)"
fill="#000000" stroke="none">
<path d="M5347 5458 c-13 -21 -377 -666 -1006 -1785 -124 -222 -229 -403 -232
-403 -3 0 -125 203 -269 451 -256 438 -265 451 -280 429 -45 -67 -1067 -1675
-1065 -1678 1 -1 37 10 79 25 l78 28 162 175 c89 96 266 289 394 427 l232 253
27 -43 c14 -23 74 -121 133 -217 59 -96 138 -226 176 -287 37 -62 71 -113 74
-113 3 0 70 79 149 175 80 96 148 175 151 175 3 0 24 -55 46 -122 l40 -123
440 733 c241 402 441 732 445 732 3 0 90 -213 194 -472 103 -260 191 -479 195
-486 4 -8 80 84 210 254 140 184 205 262 210 253 5 -8 211 -390 460 -849 248
-459 454 -838 458 -842 4 -4 52 48 107 114 236 287 287 348 289 348 2 0 76
-110 166 -245 l163 -245 40 0 c33 0 38 3 33 18 -72 194 -441 1142 -445 1142
-3 0 -89 -126 -190 -281 -102 -154 -188 -282 -191 -284 -4 -2 -53 84 -110 193
-57 108 -243 465 -415 792 -382 728 -868 1656 -906 1728 -27 54 -27 54 -42 30z"/>
</g>
</svg>
